<mxfile host="Electron" agent="Mozilla/5.0 (Macintosh; Intel Mac OS X 10_15_7) AppleWebKit/537.36 (KHTML, like Gecko) draw.io/25.0.2 Chrome/128.0.6613.186 Electron/32.2.5 Safari/537.36" version="25.0.2">
  <diagram name="Page-1" id="x4owEQR5tJqsFIFqXLhK">
    <mxGraphModel dx="984" dy="1847" grid="1" gridSize="10" guides="1" tooltips="1" connect="1" arrows="1" fold="1" page="1" pageScale="1" pageWidth="850" pageHeight="1100" math="0" shadow="0">
      <root>
        <mxCell id="0" />
        <mxCell id="1" parent="0" />
        <mxCell id="aL0qmMMuCSAnXSBfhj6i-4" value="Zappa-Core" style="rounded=0;whiteSpace=wrap;html=1;fillColor=#67AB9F;fontColor=#000000;strokeColor=#BD7000;" parent="1" vertex="1">
          <mxGeometry x="160" y="330" width="120" height="60" as="geometry" />
        </mxCell>
        <mxCell id="7pJAqrlwPtRe5XFjH7It-2" value="Zappa&amp;nbsp;&lt;span style=&quot;background-color: initial;&quot;&gt;API&lt;/span&gt;" style="rounded=0;whiteSpace=wrap;html=1;fillColor=#fa6800;fontColor=#000000;strokeColor=#C73500;" parent="1" vertex="1">
          <mxGeometry x="460" y="150" width="120" height="60" as="geometry" />
        </mxCell>
        <mxCell id="3A4aCv_wWsXOsg5iLZ_A-2" value="redis" style="shape=cylinder3;whiteSpace=wrap;html=1;boundedLbl=1;backgroundOutline=1;size=15;" parent="1" vertex="1">
          <mxGeometry x="140" y="460" width="60" height="80" as="geometry" />
        </mxCell>
        <mxCell id="3A4aCv_wWsXOsg5iLZ_A-6" value="acesso" style="rounded=0;whiteSpace=wrap;html=1;fillColor=#f5f5f5;strokeColor=#666666;gradientColor=#b3b3b3;fontColor=#000000;" parent="1" vertex="1">
          <mxGeometry x="590" y="210" width="120" height="20" as="geometry" />
        </mxCell>
        <mxCell id="3A4aCv_wWsXOsg5iLZ_A-7" value="Zappa Client&lt;br&gt;Micro&amp;nbsp;Front End" style="rounded=0;whiteSpace=wrap;html=1;fillColor=#1ba1e2;fontColor=#ffffff;strokeColor=#006EAF;" parent="1" vertex="1">
          <mxGeometry x="460" y="720" width="120" height="60" as="geometry" />
        </mxCell>
        <mxCell id="3A4aCv_wWsXOsg5iLZ_A-8" value="webhook" style="rounded=0;whiteSpace=wrap;html=1;fillColor=#60a917;fontColor=#ffffff;strokeColor=#2D7600;" parent="1" vertex="1">
          <mxGeometry x="590" y="120" width="120" height="20" as="geometry" />
        </mxCell>
        <mxCell id="3A4aCv_wWsXOsg5iLZ_A-9" value="crud" style="rounded=0;whiteSpace=wrap;html=1;fillColor=#f5f5f5;strokeColor=#666666;gradientColor=#b3b3b3;fontColor=#000000;" parent="1" vertex="1">
          <mxGeometry x="590" y="180" width="120" height="20" as="geometry" />
        </mxCell>
        <mxCell id="3A4aCv_wWsXOsg5iLZ_A-10" value="métricas" style="rounded=0;whiteSpace=wrap;html=1;fillColor=#647687;strokeColor=#314354;fontColor=#ffffff;" parent="1" vertex="1">
          <mxGeometry x="590" y="150" width="120" height="20" as="geometry" />
        </mxCell>
        <mxCell id="3A4aCv_wWsXOsg5iLZ_A-11" value="chat" style="rounded=0;whiteSpace=wrap;html=1;fillColor=#bac8d3;strokeColor=#23445d;labelBorderColor=default;fontColor=#000000;" parent="1" vertex="1">
          <mxGeometry x="590" y="680" width="120" height="20" as="geometry" />
        </mxCell>
        <mxCell id="3A4aCv_wWsXOsg5iLZ_A-12" value="gps" style="rounded=0;whiteSpace=wrap;html=1;fillColor=#bac8d3;strokeColor=#23445d;labelBorderColor=default;fontColor=#000000;" parent="1" vertex="1">
          <mxGeometry x="590" y="710" width="120" height="20" as="geometry" />
        </mxCell>
        <mxCell id="3A4aCv_wWsXOsg5iLZ_A-13" value="token" style="rounded=0;whiteSpace=wrap;html=1;fillColor=#bac8d3;strokeColor=#23445d;labelBorderColor=default;fontColor=#000000;" parent="1" vertex="1">
          <mxGeometry x="590" y="740" width="120" height="20" as="geometry" />
        </mxCell>
        <mxCell id="3A4aCv_wWsXOsg5iLZ_A-14" value="mongoDb" style="shape=cylinder3;whiteSpace=wrap;html=1;boundedLbl=1;backgroundOutline=1;size=15;" parent="1" vertex="1">
          <mxGeometry x="230" y="460" width="60" height="80" as="geometry" />
        </mxCell>
        <mxCell id="3A4aCv_wWsXOsg5iLZ_A-15" value="pagamento" style="rounded=0;whiteSpace=wrap;html=1;fillColor=#bac8d3;strokeColor=#23445d;labelBorderColor=default;fontColor=#000000;" parent="1" vertex="1">
          <mxGeometry x="590" y="770" width="120" height="20" as="geometry" />
        </mxCell>
        <mxCell id="3A4aCv_wWsXOsg5iLZ_A-16" value="agenda" style="rounded=0;whiteSpace=wrap;html=1;fillColor=#bac8d3;strokeColor=#23445d;labelBorderColor=default;fontColor=#000000;" parent="1" vertex="1">
          <mxGeometry x="590" y="800" width="120" height="20" as="geometry" />
        </mxCell>
        <mxCell id="3A4aCv_wWsXOsg5iLZ_A-19" value="" style="endArrow=classic;startArrow=classic;html=1;rounded=0;entryX=-0.017;entryY=0.9;entryDx=0;entryDy=0;entryPerimeter=0;" parent="1" edge="1" target="7pJAqrlwPtRe5XFjH7It-2">
          <mxGeometry width="50" height="50" relative="1" as="geometry">
            <mxPoint x="290" y="350" as="sourcePoint" />
            <mxPoint x="450" y="230" as="targetPoint" />
          </mxGeometry>
        </mxCell>
        <mxCell id="3A4aCv_wWsXOsg5iLZ_A-20" value="" style="endArrow=classic;startArrow=classic;html=1;rounded=0;exitX=0.175;exitY=-0.067;exitDx=0;exitDy=0;exitPerimeter=0;entryX=0.183;entryY=1.05;entryDx=0;entryDy=0;entryPerimeter=0;" parent="1" edge="1" target="7pJAqrlwPtRe5XFjH7It-2" source="3A4aCv_wWsXOsg5iLZ_A-7">
          <mxGeometry width="50" height="50" relative="1" as="geometry">
            <mxPoint x="480" y="400" as="sourcePoint" />
            <mxPoint x="480" y="240" as="targetPoint" />
          </mxGeometry>
        </mxCell>
        <mxCell id="L-Rg0BLthTsQ2UDCXc2B-1" value="Zappa Admin&lt;br&gt;Micro Front End" style="rounded=0;whiteSpace=wrap;html=1;fillColor=#e3c800;fontColor=#000000;strokeColor=#B09500;" vertex="1" parent="1">
          <mxGeometry x="510" y="400" width="120" height="60" as="geometry" />
        </mxCell>
        <mxCell id="L-Rg0BLthTsQ2UDCXc2B-4" value="alerta" style="rounded=0;whiteSpace=wrap;html=1;fillColor=#f5f5f5;strokeColor=#666666;gradientColor=#b3b3b3;fontColor=#000000;" vertex="1" parent="1">
          <mxGeometry x="690" y="450" width="120" height="20" as="geometry" />
        </mxCell>
        <mxCell id="L-Rg0BLthTsQ2UDCXc2B-5" value="painel" style="rounded=0;whiteSpace=wrap;html=1;fillColor=#647687;fontColor=#ffffff;strokeColor=#314354;" vertex="1" parent="1">
          <mxGeometry x="690" y="360" width="120" height="20" as="geometry" />
        </mxCell>
        <mxCell id="L-Rg0BLthTsQ2UDCXc2B-6" value="mensagens" style="rounded=0;whiteSpace=wrap;html=1;fillColor=#f5f5f5;strokeColor=#666666;gradientColor=#b3b3b3;fontColor=#000000;" vertex="1" parent="1">
          <mxGeometry x="690" y="420" width="120" height="20" as="geometry" />
        </mxCell>
        <mxCell id="L-Rg0BLthTsQ2UDCXc2B-7" value="usuários" style="rounded=0;whiteSpace=wrap;html=1;fillColor=#f5f5f5;strokeColor=#666666;gradientColor=#b3b3b3;fontColor=#000000;" vertex="1" parent="1">
          <mxGeometry x="690" y="390" width="120" height="20" as="geometry" />
        </mxCell>
        <mxCell id="L-Rg0BLthTsQ2UDCXc2B-9" value="" style="endArrow=classic;startArrow=classic;html=1;rounded=0;entryX=0.75;entryY=1;entryDx=0;entryDy=0;" edge="1" parent="1" target="7pJAqrlwPtRe5XFjH7It-2">
          <mxGeometry width="50" height="50" relative="1" as="geometry">
            <mxPoint x="550" y="400" as="sourcePoint" />
            <mxPoint x="550" y="240" as="targetPoint" />
          </mxGeometry>
        </mxCell>
        <mxCell id="L-Rg0BLthTsQ2UDCXc2B-10" value="" style="endArrow=none;dashed=1;html=1;rounded=0;" edge="1" parent="1">
          <mxGeometry width="50" height="50" relative="1" as="geometry">
            <mxPoint x="370" y="-2" as="sourcePoint" />
            <mxPoint x="380" y="830" as="targetPoint" />
          </mxGeometry>
        </mxCell>
        <mxCell id="L-Rg0BLthTsQ2UDCXc2B-11" value="VPC Privada" style="text;html=1;align=center;verticalAlign=middle;whiteSpace=wrap;rounded=0;" vertex="1" parent="1">
          <mxGeometry x="140" y="50" width="100" height="30" as="geometry" />
        </mxCell>
        <mxCell id="L-Rg0BLthTsQ2UDCXc2B-12" value="VPC Pública" style="text;html=1;align=center;verticalAlign=middle;whiteSpace=wrap;rounded=0;" vertex="1" parent="1">
          <mxGeometry x="550" y="50" width="100" height="30" as="geometry" />
        </mxCell>
        <mxCell id="L-Rg0BLthTsQ2UDCXc2B-13" value="VENDAS" style="rounded=0;whiteSpace=wrap;html=1;" vertex="1" parent="1">
          <mxGeometry x="640" y="330" width="120" height="20" as="geometry" />
        </mxCell>
        <mxCell id="L-Rg0BLthTsQ2UDCXc2B-14" value="FLUXO" style="rounded=0;whiteSpace=wrap;html=1;" vertex="1" parent="1">
          <mxGeometry x="640" y="480" width="120" height="20" as="geometry" />
        </mxCell>
        <mxCell id="L-Rg0BLthTsQ2UDCXc2B-16" value="" style="endArrow=none;html=1;rounded=0;" edge="1" parent="1">
          <mxGeometry width="50" height="50" relative="1" as="geometry">
            <mxPoint x="670" y="464" as="sourcePoint" />
            <mxPoint x="670" y="364" as="targetPoint" />
          </mxGeometry>
        </mxCell>
      </root>
    </mxGraphModel>
  </diagram>
</mxfile>
